<?xml version="1.0" encoding="UTF-8"?>
<svg version="1.1" xmlns="http://www.w3.org/2000/svg" width="5692" height="3200">
<path d="M0 0 C0.99 0.33 1.98 0.66 3 1 C3 1.99 3 2.98 3 4 C3.65226562 4.24105469 4.30453125 4.48210938 4.9765625 4.73046875 C8.89743049 6.37682805 12.61731278 8.32582032 16.375 10.3125 C17.62349731 10.97064697 17.62349731 10.97064697 18.8972168 11.64208984 C26.23423179 15.53841488 33.44970447 19.63528208 40.66430664 23.75244141 C48.80557108 28.37524564 57.04257037 32.8009647 65.3125 37.1875 C75.41683893 42.54878762 85.46919763 47.98496388 95.44873047 53.57568359 C100.99715194 56.67324253 106.56174918 59.74168172 112.125 62.8125 C112.74877533 63.15697174 113.37255066 63.50144348 114.01522827 63.85635376 C122.44527864 68.51034055 130.89813885 73.1191652 139.375 77.6875 C147.01298964 81.80375167 154.58866008 86.01316181 162.125 90.3125 C171.10477374 95.43171511 180.1827001 100.34324644 189.3125 105.1875 C199.41663945 110.54917102 209.46918914 115.98495913 219.44873047 121.57568359 C224.99715194 124.67324253 230.56174918 127.74168172 236.125 130.8125 C236.74877533 131.15697174 237.37255066 131.50144348 238.01522827 131.85635376 C246.44527864 136.51034055 254.89813885 141.1191652 263.375 145.6875 C271.01298964 149.80375167 278.58866008 154.01316181 286.125 158.3125 C295.10477374 163.43171511 304.1827001 168.34324644 313.3125 173.1875 C323.41663945 178.54917102 333.46918914 183.98495913 343.44873047 189.57568359 C348.99715194 192.67324253 354.56174918 195.74168172 360.125 198.8125 C360.74877533 199.15697174 361.37255066 199.50144348 362.01522827 199.85635376 C370.44527864 204.51034055 378.89813885 209.1191652 387.375 213.6875 C395.01298964 217.80375167 402.58866008 222.01316181 410.125 226.3125 C419.10477374 231.43171511 428.1827001 236.34324644 437.3125 241.1875 C447.41663945 246.54917102 457.46918914 251.98495913 467.44873047 257.57568359 C472.99715194 260.67324253 478.56174918 263.74168172 484.125 266.8125 C484.74877533 267.15697174 485.37255066 267.50144348 486.01522827 267.85635376 C494.44527864 272.51034055 502.89813885 277.1191652 511.375 281.6875 C519.01298964 285.80375167 526.58866008 290.01316181 534.125 294.3125 C543.10477374 299.43171511 552.1827001 304.34324644 561.3125 309.1875 C571.41663945 314.54917102 581.46918914 319.98495913 591.44873047 325.57568359 C596.99715194 328.67324253 602.56174918 331.74168172 608.125 334.8125 C608.74877533 335.15697174 609.37255066 335.50144348 610.01522827 335.85635376 C618.44527864 340.51034055 626.89813885 345.1191652 635.375 349.6875 C643.01298964 353.80375167 650.58866008 358.01316181 658.125 362.3125 C667.10477374 367.43171511 676.1827001 372.34324644 685.3125 377.1875 C695.41663945 382.54917102 705.46918914 387.98495913 715.44873047 393.57568359 C720.99714909 396.67324093 726.56157578 399.74200083 732.125 402.8125 C732.74246094 403.15331604 733.35992188 403.49413208 733.99609375 403.84527588 C742.83379841 408.72144014 751.68783398 413.56635348 760.5625 418.375 C761.56104004 418.91616455 762.55958008 419.4573291 763.58837891 420.01489258 C767.28922506 422.01671336 767.28922506 422.01671336 771 424 C771.66523682 424.42410156 772.33047363 424.84820313 773.01586914 425.28515625 C775.01344398 426.23814077 775.01344398 426.23814077 777.08935547 425.28759766 C777.84104004 424.83433105 778.59272461 424.38106445 779.3671875 423.9140625 C780.23770752 423.40335205 781.10822754 422.8926416 782.00512695 422.36645508 C782.95218506 421.7917749 783.89924316 421.21709473 784.875 420.625 C786.94705538 419.40906631 789.02139396 418.19701742 791.09765625 416.98828125 C792.20898926 416.33939941 793.32032227 415.69051758 794.46533203 415.02197266 C800.65532186 411.45053321 806.99471012 408.15036846 813.3125 404.8125 C815.89146016 403.44558096 818.46938748 402.07672487 821.046875 400.70703125 C821.96734871 400.21801331 821.96734871 400.21801331 822.90641785 399.71911621 C829.8067963 396.04755004 836.62993337 392.24433323 843.44873047 388.42431641 C848.99715194 385.32675747 854.56174918 382.25831828 860.125 379.1875 C860.74877533 378.84302826 861.37255066 378.49855652 862.01522827 378.14364624 C871.42688988 372.9477403 880.87204968 367.81705832 890.3359375 362.71679688 C896.98137234 359.12383177 903.56329773 355.43082601 910.125 351.6875 C919.10477374 346.56828489 928.1827001 341.65675356 937.3125 336.8125 C947.41663945 331.45082898 957.46918914 326.01504087 967.44873047 320.42431641 C972.99715194 317.32675747 978.56174918 314.25831828 984.125 311.1875 C984.74877533 310.84302826 985.37255066 310.49855652 986.01522827 310.14364624 C995.42688988 304.9477403 1004.87204968 299.81705832 1014.3359375 294.71679688 C1020.98137234 291.12383177 1027.56329773 287.43082601 1034.125 283.6875 C1043.10477374 278.56828489 1052.1827001 273.65675356 1061.3125 268.8125 C1071.41663945 263.45082898 1081.46918914 258.01504087 1091.44873047 252.42431641 C1096.99715194 249.32675747 1102.56174918 246.25831828 1108.125 243.1875 C1108.74877533 242.84302826 1109.37255066 242.49855652 1110.01522827 242.14364624 C1119.42688988 236.9477403 1128.87204968 231.81705832 1138.3359375 226.71679688 C1144.98137234 223.12383177 1151.56329773 219.43082601 1158.125 215.6875 C1167.10477374 210.56828489 1176.1827001 205.65675356 1185.3125 200.8125 C1195.41663945 195.45082898 1205.46918914 190.01504087 1215.44873047 184.42431641 C1220.99715194 181.32675747 1226.56174918 178.25831828 1232.125 175.1875 C1232.74877533 174.84302826 1233.37255066 174.49855652 1234.01522827 174.14364624 C1243.42688988 168.9477403 1252.87204968 163.81705832 1262.3359375 158.71679688 C1268.98137234 155.12383177 1275.56329773 151.43082601 1282.125 147.6875 C1291.10477374 142.56828489 1300.1827001 137.65675356 1309.3125 132.8125 C1319.41663945 127.45082898 1329.46918914 122.01504087 1339.44873047 116.42431641 C1344.99715194 113.32675747 1350.56174918 110.25831828 1356.125 107.1875 C1356.74877533 106.84302826 1357.37255066 106.49855652 1358.01522827 106.14364624 C1367.4188539 100.95217673 1376.85574612 95.8254939 1386.31176758 90.72998047 C1394.17203572 86.48043854 1401.94406339 82.08490678 1409.70849609 77.66333008 C1416.34384775 73.89881387 1423.05176651 70.30876038 1429.82226562 66.79467773 C1435.89862162 63.6230577 1441.86113963 60.27452739 1447.8125 56.875 C1456.89576718 51.69088384 1466.0742785 46.71263658 1475.3125 41.8125 C1484.64002922 36.86338187 1493.93668028 31.8732744 1503.1484375 26.7109375 C1507.18572008 24.44871291 1511.23597989 22.21031555 1515.2890625 19.9765625 C1515.93683151 19.61955261 1516.58460052 19.26254272 1517.2519989 18.89471436 C1519.87121245 17.45149526 1522.4906285 16.00864485 1525.11038208 14.56640625 C1526.94233463 13.55775739 1528.773924 12.54845162 1530.60546875 11.5390625 C1531.72614746 10.92192383 1532.84682617 10.30478516 1534.00146484 9.66894531 C1536.43269493 8.31575456 1538.83987183 6.93339277 1541.23828125 5.5234375 C1544 4 1544 4 1546 4 C1546.33 2.68 1546.66 1.36 1547 0 C1550.875 1.75 1550.875 1.75 1552 4 C1551.67 4.66 1551.34 5.32 1551 6 C1549.515 6.495 1549.515 6.495 1548 7 C1546.26227523 9.31253826 1546.26227523 9.31253826 1544.5859375 12.23828125 C1543.91626953 13.35396484 1543.24660156 14.46964844 1542.55664062 15.61914062 C1541.82935767 16.85021941 1541.10214613 18.08134039 1540.375 19.3125 C1539.61486074 20.58453965 1538.85377792 21.85601589 1538.09179688 23.12695312 C1536.50771489 25.7707733 1534.92774397 28.41698541 1533.35058594 31.06494141 C1530.11591391 36.48890778 1526.83238939 41.88299807 1523.54840088 47.27719116 C1521.77988407 50.18334705 1520.01514918 53.09179792 1518.25 56 C1517.54168445 57.16667746 1516.83335112 58.33334413 1516.125 59.5 C1515.5990625 60.36625 1515.5990625 60.36625 1515.0625 61.25 C1477.87500054 122.49999911 1477.87500054 122.49999911 1476.81254578 124.24992371 C1476.10405879 125.41684404 1475.39557287 126.58376502 1474.68708801 127.75068665 C1472.91861422 130.66347747 1471.1501221 133.57625716 1469.3815918 136.48901367 C1466.16591072 141.78525796 1462.95037468 147.08159007 1459.73550415 152.37832642 C1452.26713755 164.68298737 1444.79457724 176.98505504 1437.30786133 189.27856445 C1432.69872262 196.84842322 1428.09840526 204.42361902 1423.5 212 C1417.77652959 221.43005017 1412.04625474 230.85591889 1406.30859375 240.27734375 C1401.69922949 247.84762082 1397.09868081 255.42323112 1392.5 263 C1384.44890847 276.26463811 1376.38253904 289.51993735 1368.31152344 302.77246094 C1361.0013822 314.77626058 1353.69980853 326.78521923 1346.40756226 338.79989624 C1341.04811821 347.62990691 1335.6812072 356.45533875 1330.30859375 365.27734375 C1325.69922952 372.84762076 1321.09865147 380.42321336 1316.5 388 C1310.77652959 397.43005017 1305.04625474 406.85591889 1299.30859375 416.27734375 C1294.69922952 423.84762076 1290.09865147 431.42321336 1285.5 439 C1279.77652959 448.43005017 1274.04625474 457.85591889 1268.30859375 467.27734375 C1263.69922952 474.84762076 1259.09865147 482.42321336 1254.5 490 C1248.77652959 499.43005017 1243.04625474 508.85591889 1237.30859375 518.27734375 C1232.69922952 525.84762076 1228.09865147 533.42321336 1223.5 541 C1217.77652959 550.43005017 1212.04625474 559.85591889 1206.30859375 569.27734375 C1201.69922949 576.84762082 1197.09868081 584.42323112 1192.5 592 C1184.44890847 605.26463811 1176.38253904 618.51993735 1168.31152344 631.77246094 C1161.0013822 643.77626058 1153.69980853 655.78521923 1146.40756226 667.79989624 C1141.04811821 676.62990691 1135.6812072 685.45533875 1130.30859375 694.27734375 C1125.69922952 701.84762076 1121.09865147 709.42321336 1116.5 717 C1110.77652959 726.43005017 1105.04625474 735.85591889 1099.30859375 745.27734375 C1094.69922952 752.84762076 1090.09865147 760.42321336 1085.5 768 C1079.77652959 777.43005017 1074.04625474 786.85591889 1068.30859375 796.27734375 C1063.69922952 803.84762076 1059.09865147 811.42321336 1054.5 819 C1048.77652959 828.43005017 1043.04625474 837.85591889 1037.30859375 847.27734375 C1032.69922952 854.84762076 1028.09865147 862.42321336 1023.5 870 C1017.77652959 879.43005017 1012.04625474 888.85591889 1006.30859375 898.27734375 C1001.69922952 905.84762076 997.09865147 913.42321336 992.5 921 C986.77652959 930.43005017 981.04625474 939.85591889 975.30859375 949.27734375 C970.69922952 956.84762076 966.09865147 964.42321336 961.5 972 C955.77652959 981.43005017 950.04625474 990.85591889 944.30859375 1000.27734375 C939.69922952 1007.84762076 935.09865147 1015.42321336 930.5 1023 C924.77652959 1032.43005017 919.04625474 1041.85591889 913.30859375 1051.27734375 C908.69922952 1058.84762076 904.09865147 1066.42321336 899.5 1074 C893.77652959 1083.43005017 888.04625474 1092.85591889 882.30859375 1102.27734375 C877.69922952 1109.84762076 873.09865147 1117.42321336 868.5 1125 C862.77652959 1134.43005017 857.04625474 1143.85591889 851.30859375 1153.27734375 C846.69922952 1160.84762076 842.09865147 1168.42321336 837.5 1176 C831.77652959 1185.43005017 826.04625474 1194.85591889 820.30859375 1204.27734375 C816.06373172 1211.24897365 811.82611409 1218.224983 807.59106445 1225.20257568 C806.50557937 1226.99080852 805.41982945 1228.77888027 804.33398438 1230.56689453 C803.61848509 1231.74511446 802.90299028 1232.9233371 802.1875 1234.1015625 C801.83586792 1234.68060333 801.48423584 1235.25964417 801.12194824 1235.85623169 C798.78694972 1239.70201234 796.45542605 1243.54988484 794.125 1247.3984375 C787.88604287 1257.69065088 781.59585144 1267.93172941 775 1278 C771.66425378 1274.93768318 769.46421091 1271.74650039 767.1640625 1267.85546875 C766.63060966 1266.95933113 766.63060966 1266.95933113 766.08638 1266.04508972 C765.32409002 1264.76303355 764.56448768 1263.47937618 763.80734253 1262.1942749 C762.60671469 1260.15646458 761.39923445 1258.12286539 760.18969727 1256.09033203 C758.95885755 1254.02198964 757.72835032 1251.95346178 756.49995422 1249.88366699 C753.02054437 1244.02203721 749.49107075 1238.19197497 745.9375 1232.375 C744.8111225 1230.52869184 743.68482151 1228.68233701 742.55859375 1226.8359375 C741.98737793 1225.89975586 741.41616211 1224.96357422 740.82763672 1223.99902344 C737.74325998 1218.93777793 734.6690553 1213.87035853 731.5942688 1208.80328369 C726.06919382 1199.69832007 720.53957081 1190.59615438 715 1181.5 C709.46081764 1172.40448346 703.93222017 1163.30257267 698.40673828 1154.19873047 C693.60998941 1146.29580207 688.80853269 1138.39576614 684 1130.5 C678.46081764 1121.40448346 672.93222017 1112.30257267 667.40673828 1103.19873047 C662.60998941 1095.29580207 657.80853269 1087.39576614 653 1079.5 C647.46081764 1070.40448346 641.93222017 1061.30257267 636.40673828 1052.19873047 C631.60998941 1044.29580207 626.80853269 1036.39576614 622 1028.5 C616.82614239 1020.00435852 611.66109387 1011.50339848 606.5 1003 C599.01034535 990.66036156 591.50818979 978.32836948 584 966 C576.12675547 953.07221445 568.26123606 940.13978661 560.40756226 927.20010376 C555.6105398 919.29671693 550.80881037 911.3962221 546 903.5 C540.46081764 894.40448346 534.93222017 885.30257267 529.40673828 876.19873047 C524.60998941 868.29580207 519.80853269 860.39576614 515 852.5 C509.46081764 843.40448346 503.93222017 834.30257267 498.40673828 825.19873047 C493.60998941 817.29580207 488.80853269 809.39576614 484 801.5 C478.46081764 792.40448346 472.93222017 783.30257267 467.40673828 774.19873047 C462.60998941 766.29580207 457.80853269 758.39576614 453 750.5 C447.46081764 741.40448346 441.93222017 732.30257267 436.40673828 723.19873047 C431.60998941 715.29580207 426.80853269 707.39576614 422 699.5 C416.46081764 690.40448346 410.93222017 681.30257267 405.40673828 672.19873047 C400.60998941 664.29580207 395.80853269 656.39576614 391 648.5 C385.46081764 639.40448346 379.93222017 630.30257267 374.40673828 621.19873047 C369.60998941 613.29580207 364.80853269 605.39576614 360 597.5 C354.46081764 588.40448346 348.93222017 579.30257267 343.40673828 570.19873047 C338.60998941 562.29580207 333.80853269 554.39576614 329 546.5 C323.46081764 537.40448346 317.93222017 528.30257267 312.40673828 519.19873047 C307.60998941 511.29580207 302.80853269 503.39576614 298 495.5 C292.46081764 486.40448346 286.93222017 477.30257267 281.40673828 468.19873047 C276.60998941 460.29580207 271.80853269 452.39576614 267 444.5 C261.46081764 435.40448346 255.93222017 426.30257267 250.40673828 417.19873047 C245.60998941 409.29580207 240.80853269 401.39576614 236 393.5 C230.46081764 384.40448346 224.93222017 375.30257267 219.40673828 366.19873047 C214.60998941 358.29580207 209.80853269 350.39576614 205 342.5 C199.46081764 333.40448346 193.93222017 324.30257267 188.40673828 315.19873047 C183.60998941 307.29580207 178.80853269 299.39576614 174 291.5 C168.46081764 282.40448346 162.93222017 273.30257267 157.40673828 264.19873047 C152.60998941 256.29580207 147.80853269 248.39576614 143 240.5 C137.46081764 231.40448346 131.93222017 222.30257267 126.40673828 213.19873047 C121.60998941 205.29580207 116.80853269 197.39576614 112 189.5 C106.46081764 180.40448346 100.93222017 171.30257267 95.40673828 162.19873047 C90.60998941 154.29580207 85.80853269 146.39576614 81 138.5 C75.46081764 129.40448346 69.93222017 120.30257267 64.40673828 111.19873047 C59.60998941 103.29580207 54.80853269 95.39576614 50 87.5 C44.82614235 79.00435846 39.66112684 70.50337851 34.5 62 C25.71827979 47.52612491 25.71827979 47.52612491 16.91088867 33.06787109 C14.18063885 28.59569717 11.46783424 24.11493127 8.79296875 19.609375 C8.28878418 18.76648926 7.78459961 17.92360352 7.26513672 17.05517578 C6.32339081 15.47969027 5.3883812 13.90015078 4.46142578 12.31591797 C2.115346 8.14392638 2.115346 8.14392638 -2 6 C-2.33 5.01 -2.66 4.02 -3 3 C-2.01 2.01 -1.02 1.02 0 0 Z " fill="#4BBAEA" transform="translate(2066,942)"/>
<path d="M0 0 C0.66 0 1.32 0 2 0 C2 139.92 2 279.84 2 424 C-7.26101159 429.29200662 -16.53226764 434.54425623 -25.875 439.6875 C-27.14143902 440.38582318 -28.40787781 441.08414675 -29.67431641 441.7824707 C-38.5353487 446.66413986 -47.42919663 451.48312197 -56.33496094 456.28271484 C-62.98075433 459.87578375 -69.56298141 463.56899354 -76.125 467.3125 C-85.10477374 472.43171511 -94.1827001 477.34324644 -103.3125 482.1875 C-113.41663945 487.54917102 -123.46918914 492.98495913 -133.44873047 498.57568359 C-138.99715194 501.67324253 -144.56174918 504.74168172 -150.125 507.8125 C-150.74877533 508.15697174 -151.37255066 508.50144348 -152.01522827 508.85635376 C-161.42688988 514.0522597 -170.87204968 519.18294168 -180.3359375 524.28320312 C-186.98137234 527.87616823 -193.56329773 531.56917399 -200.125 535.3125 C-209.10477374 540.43171511 -218.1827001 545.34324644 -227.3125 550.1875 C-237.41663945 555.54917102 -247.46918914 560.98495913 -257.44873047 566.57568359 C-262.99715194 569.67324253 -268.56174918 572.74168172 -274.125 575.8125 C-274.74877533 576.15697174 -275.37255066 576.50144348 -276.01522827 576.85635376 C-285.42688988 582.0522597 -294.87204968 587.18294168 -304.3359375 592.28320312 C-310.98136926 595.87616656 -317.56336862 599.56905292 -324.125 603.3125 C-334.39916787 609.17189506 -344.81025495 614.75371285 -355.27197266 620.26879883 C-362.12783304 623.89084004 -368.90579819 627.60094221 -375.58119202 631.54670715 C-379.78585365 634 -379.78585365 634 -382 634 C-379.45883111 636.89866553 -376.60809447 638.43597591 -373.21484375 640.22265625 C-371.47376343 641.14582642 -371.47376343 641.14582642 -369.69750977 642.08764648 C-369.08432892 642.40966034 -368.47114807 642.73167419 -367.83938599 643.06344604 C-364.62398388 644.75248536 -361.41826618 646.45975828 -358.2109375 648.1640625 C-357.57726761 648.50012009 -356.94359772 648.83617767 -356.29072571 649.18241882 C-351.51827942 651.71563807 -346.77706326 654.29839747 -342.0625 656.9375 C-341.38388916 657.31680664 -340.70527832 657.69611328 -340.00610352 658.08691406 C-338.53182513 658.91099702 -337.05762671 659.73522304 -335.58349609 660.55957031 C-330.02287792 663.65989608 -324.44862795 666.73564502 -318.875 669.8125 C-318.25140594 670.1568811 -317.62781189 670.50126221 -316.98532104 670.8560791 C-308.55508595 675.5101537 -300.10204075 680.11906841 -291.625 684.6875 C-283.98701036 688.80375167 -276.41133992 693.01316181 -268.875 697.3125 C-259.89522626 702.43171511 -250.8172999 707.34324644 -241.6875 712.1875 C-231.58336055 717.54917102 -221.53081086 722.98495913 -211.55126953 728.57568359 C-206.00284806 731.67324253 -200.43825082 734.74168172 -194.875 737.8125 C-194.25122467 738.15697174 -193.62744934 738.50144348 -192.98477173 738.85635376 C-184.55472136 743.51034055 -176.10186115 748.1191652 -167.625 752.6875 C-159.98701036 756.80375167 -152.41133992 761.01316181 -144.875 765.3125 C-135.89522626 770.43171511 -126.8172999 775.34324644 -117.6875 780.1875 C-107.58336055 785.54917102 -97.53081086 790.98495913 -87.55126953 796.57568359 C-82.00284806 799.67324253 -76.43825082 802.74168172 -70.875 805.8125 C-70.25122467 806.15697174 -69.62744934 806.50144348 -68.98477173 806.85635376 C-60.55471995 811.51034133 -52.10179206 816.11903481 -43.625 820.6875 C-34.66105271 825.51994997 -25.77121444 830.47237181 -16.92236328 835.51245117 C-15.60534424 836.262323 -15.60534424 836.262323 -14.26171875 837.02734375 C-13.40755371 837.5157373 -12.55338867 838.00413086 -11.67333984 838.50732422 C-9.77258967 839.5686198 -7.85406286 840.59834692 -5.92431641 841.60595703 C-4.9244873 842.12915527 -3.9246582 842.65235352 -2.89453125 843.19140625 C-1.52518433 843.89245483 -1.52518433 843.89245483 -0.12817383 844.60766602 C2 846 2 846 3 849 C-1.33238305 851.39755487 -5.665817 853.79320103 -10 856.1875 C-10.98338348 856.73079453 -10.98338348 856.73079453 -11.9866333 857.2850647 C-20.75937104 862.1299083 -29.55202376 866.93456771 -38.375 871.6875 C-46.05364271 875.82591503 -53.67151286 880.05605606 -61.25 884.375 C-69.86573123 889.2833288 -78.56277619 894.02393716 -87.3125 898.6875 C-97.06679021 903.88692916 -106.76903123 909.16461568 -116.41650391 914.55957031 C-121.97712093 917.65989544 -127.55129066 920.73579443 -133.125 923.8125 C-133.74693237 924.15588409 -134.36886475 924.49926819 -135.00964355 924.85305786 C-144.54261392 930.11447549 -154.10482839 935.31963897 -163.68530273 940.49414062 C-170.08331202 943.95281433 -176.45611596 947.45274588 -182.80810547 950.99511719 C-191.04182331 955.58654459 -199.29849175 960.13627264 -207.55419922 964.68798828 C-208.81738282 965.38444009 -210.08056641 966.08089191 -211.34375 966.77734375 C-211.97532013 967.12553162 -212.60689026 967.47371948 -213.25759888 967.8324585 C-217.66299483 970.26157651 -222.06631178 972.69443266 -226.46875 975.12890625 C-238.84646289 981.97164835 -251.24372225 988.77428424 -263.68798828 995.49560547 C-270.82235617 999.35231216 -277.920296 1003.26982732 -285.00390625 1007.21875 C-291.36883343 1010.7658502 -297.74609717 1014.29061612 -304.125 1017.8125 C-304.74656982 1018.15570282 -305.36813965 1018.49890564 -306.00854492 1018.85250854 C-315.54188646 1024.11409897 -325.10446919 1029.31944496 -334.68530273 1034.49414062 C-341.82055443 1038.35135719 -348.919405 1042.26933062 -356.00390625 1046.21875 C-362.36883343 1049.7658502 -368.74609717 1053.29061612 -375.125 1056.8125 C-375.74656982 1057.15570282 -376.36813965 1057.49890564 -377.00854492 1057.85250854 C-386.54188646 1063.11409897 -396.10446919 1068.31944496 -405.68530273 1073.49414062 C-412.08331202 1076.95281433 -418.45611596 1080.45274588 -424.80810547 1083.99511719 C-433.04182331 1088.58654459 -441.29849175 1093.13627264 -449.55419922 1097.68798828 C-450.81738282 1098.38444009 -452.08056641 1099.08089191 -453.34375 1099.77734375 C-453.97532013 1100.12553162 -454.60689026 1100.47371948 -455.25759888 1100.8324585 C-459.66299483 1103.26157651 -464.06631178 1105.69443266 -468.46875 1108.12890625 C-480.84646289 1114.97164835 -493.24372225 1121.77428424 -505.68798828 1128.49560547 C-512.82235617 1132.35231216 -519.920296 1136.26982732 -527.00390625 1140.21875 C-533.36883343 1143.7658502 -539.74609717 1147.29061612 -546.125 1150.8125 C-546.74656982 1151.15570282 -547.36813965 1151.49890564 -548.00854492 1151.85250854 C-557.54188646 1157.11409897 -567.10446919 1162.31944496 -576.68530273 1167.49414062 C-583.08331202 1170.95281433 -589.45611596 1174.45274588 -595.80810547 1177.99511719 C-604.04182331 1182.58654459 -612.29849175 1187.13627264 -620.55419922 1191.68798828 C-621.81738282 1192.38444009 -623.08056641 1193.08089191 -624.34375 1193.77734375 C-624.97532013 1194.12553162 -625.60689026 1194.47371948 -626.25759888 1194.8324585 C-630.66299483 1197.26157652 -635.06630817 1199.69443918 -639.46875 1202.12890625 C-641.91651072 1203.48205315 -644.36443715 1204.83489977 -646.8125 1206.1875 C-647.41569061 1206.52079315 -648.01888123 1206.8540863 -648.64035034 1207.19747925 C-656.86165394 1211.73822338 -665.10741838 1216.23145948 -673.375 1220.6875 C-681.05354556 1224.82609732 -688.67150897 1229.05605384 -696.25 1233.375 C-704.86572882 1238.28332743 -713.56273793 1243.02401056 -722.3125 1247.6875 C-734.4881551 1254.17713729 -746.59426365 1260.77158429 -758.578125 1267.609375 C-759.32094727 1268.0317041 -760.06376953 1268.4540332 -760.82910156 1268.88916016 C-762.23959349 1269.69211901 -763.64793145 1270.49887771 -765.05371094 1271.31005859 C-769.7773313 1274 -769.7773313 1274 -772 1274 C-771.35629425 1270.79868507 -770.22074215 1268.40307904 -768.55078125 1265.60546875 C-768.03999023 1264.7448584 -767.52919922 1263.88424805 -767.00292969 1262.99755859 C-766.16616699 1261.60657959 -766.16616699 1261.60657959 -765.3125 1260.1875 C-764.73016602 1259.21119629 -764.14783203 1258.23489258 -763.54785156 1257.22900391 C-757.72748328 1247.49257725 -751.82180582 1237.80789645 -745.90820312 1228.12792969 C-742.79341726 1223.02216759 -739.69158783 1217.90854765 -736.5892334 1212.79522705 C-730.50407052 1202.7659266 -724.4103208 1192.74188935 -718.30859375 1182.72265625 C-713.69922952 1175.15237924 -709.09865147 1167.57678664 -704.5 1160 C-698.77652959 1150.56994983 -693.04625474 1141.14408111 -687.30859375 1131.72265625 C-682.69922952 1124.15237924 -678.09865147 1116.57678664 -673.5 1109 C-667.77652959 1099.56994983 -662.04625474 1090.14408111 -656.30859375 1080.72265625 C-651.69922952 1073.15237924 -647.09865147 1065.57678664 -642.5 1058 C-636.77652959 1048.56994983 -631.04625474 1039.14408111 -625.30859375 1029.72265625 C-620.69922952 1022.15237924 -616.09865147 1014.57678664 -611.5 1007 C-605.77652959 997.56994983 -600.04625474 988.14408111 -594.30859375 978.72265625 C-589.69922952 971.15237924 -585.09865147 963.57678664 -580.5 956 C-574.77652959 946.56994983 -569.04625474 937.14408111 -563.30859375 927.72265625 C-558.69922952 920.15237924 -554.09865147 912.57678664 -549.5 905 C-543.77652959 895.56994983 -538.04625474 886.14408111 -532.30859375 876.72265625 C-527.69922952 869.15237924 -523.09865147 861.57678664 -518.5 854 C-512.77652959 844.56994983 -507.04625474 835.14408111 -501.30859375 825.72265625 C-496.69922952 818.15237924 -492.09865147 810.57678664 -487.5 803 C-481.77652959 793.56994983 -476.04625474 784.14408111 -470.30859375 774.72265625 C-465.69922952 767.15237924 -461.09865147 759.57678664 -456.5 752 C-450.77652959 742.56994983 -445.04625474 733.14408111 -439.30859375 723.72265625 C-434.69922949 716.15237918 -430.09868081 708.57676888 -425.5 701 C-420.27579012 692.39281262 -415.04785664 683.78791397 -409.8125 675.1875 C-409.24950195 674.26171143 -408.68650391 673.33592285 -408.10644531 672.38208008 C-405.20506504 667.6128423 -402.29487661 662.84929102 -399.37109375 658.09375 C-393.55076238 648.60963371 -387.86931223 639.09601695 -382.53051758 629.33227539 C-379.60280048 624.00703889 -376.47945522 618.84530697 -373.22583008 613.71411133 C-369.04439101 607.11113014 -364.98713895 600.43425773 -360.9375 593.75 C-360.2023972 592.53726934 -359.46728974 591.32454149 -358.73217773 590.11181641 C-357.23365851 587.63923405 -355.73561972 585.16636126 -354.23779297 582.69335938 C-351.01451931 577.37234418 -347.78485149 572.05521274 -344.55545044 566.73791504 C-342.78668471 563.82544806 -341.01836574 560.91270985 -339.25 558 C-338.54166879 556.83333204 -337.83333546 555.66666538 -337.125 554.5 C-336.774375 553.9225 -336.42375 553.345 -336.0625 552.75 C-315.87500016 519.50000026 -315.87500016 519.50000026 -314.81254578 517.75007629 C-314.10405879 516.58315596 -313.39557287 515.41623498 -312.68708801 514.24931335 C-310.91861422 511.33652253 -309.1501221 508.42374284 -307.3815918 505.51098633 C-304.16591072 500.21474204 -300.95037468 494.91840993 -297.73550415 489.62167358 C-290.26713755 477.31701263 -282.79457724 465.01494496 -275.30786133 452.72143555 C-270.69872262 445.15157678 -266.09840526 437.57638098 -261.5 430 C-255.77652959 420.56994983 -250.04625474 411.14408111 -244.30859375 401.72265625 C-239.69922952 394.15237924 -235.09865147 386.57678664 -230.5 379 C-224.77652959 369.56994983 -219.04625474 360.14408111 -213.30859375 350.72265625 C-208.69922952 343.15237924 -204.09865147 335.57678664 -199.5 328 C-193.77652959 318.56994983 -188.04625474 309.14408111 -182.30859375 299.72265625 C-177.69922949 292.15237918 -173.09868081 284.57676888 -168.5 277 C-160.44890847 263.73536189 -152.38253904 250.48006265 -144.31152344 237.22753906 C-137.0013822 225.22373942 -129.69980853 213.21478077 -122.40756226 201.20010376 C-117.04811821 192.37009309 -111.6812072 183.54466125 -106.30859375 174.72265625 C-101.69922952 167.15237924 -97.09865147 159.57678664 -92.5 152 C-86.77652959 142.56994983 -81.04625474 133.14408111 -75.30859375 123.72265625 C-70.69922952 116.15237924 -66.09865147 108.57678664 -61.5 101 C-55.77652959 91.56994983 -50.04625474 82.14408111 -44.30859375 72.72265625 C-39.69922941 65.15237906 -35.09873962 57.57673327 -30.5 50 C-17.1081215 27.93753323 -17.1081215 27.93753323 -11.04296875 18 C-9.15486194 14.90493512 -7.2808164 11.80248972 -5.42578125 8.6875 C-4.86322632 7.75055298 -4.86322632 7.75055298 -4.28930664 6.79467773 C-3.33912135 5.21103558 -2.39576565 3.62330082 -1.453125 2.03515625 C-0.97359375 1.36355469 -0.4940625 0.69195313 0 0 Z " fill="#0A4B6E" transform="translate(3658,984)"/>
<path d="M0 0 C3.29918389 3.29918389 5.15650604 5.63415466 7.43359375 9.55859375 C8.07546631 10.65550537 8.71733887 11.75241699 9.37866211 12.88256836 C9.71396942 13.46166962 10.04927673 14.04077087 10.39474487 14.63742065 C12.1769476 17.71398795 13.98008735 20.77825728 15.78125 23.84375 C16.32307167 24.76745644 16.32307167 24.76745644 16.87583923 25.70982361 C19.98542456 31.00119699 23.18753564 36.23115112 26.4375 41.4375 C31.42932186 49.44652819 36.35762833 57.49242775 41.25 65.5625 C41.78643631 66.44722488 41.78643631 66.44722488 42.33370972 67.349823 C44.15986198 70.3619574 45.98536405 73.37448513 47.81054688 76.38720703 C51.0171317 81.67942618 54.2294978 86.96813456 57.44152832 92.25704956 C59.21126513 95.17121686 60.98061251 98.0856206 62.75 101 C63.45833148 102.16666779 64.16666481 103.33333446 64.875 104.5 C71.95833333 116.16666667 79.04166667 127.83333333 86.125 139.5 C86.47560989 140.07747482 86.82621979 140.65494965 87.18745422 141.24992371 C87.89594121 142.41684404 88.60442713 143.58376502 89.31291199 144.75068665 C91.08138578 147.66347747 92.8498779 150.57625716 94.6184082 153.48901367 C97.83408928 158.78525796 101.04962532 164.08159007 104.26449585 169.37832642 C111.73286245 181.68298737 119.20542276 193.98505504 126.69213867 206.27856445 C131.66654876 214.44832983 136.63043582 222.62446526 141.59326172 230.80126953 C146.39001059 238.70419793 151.19146731 246.60423386 156 254.5 C161.53918236 263.59551654 167.06777983 272.69742733 172.59326172 281.80126953 C177.39001059 289.70419793 182.19146731 297.60423386 187 305.5 C192.53918236 314.59551654 198.06777983 323.69742733 203.59326172 332.80126953 C208.39001059 340.70419793 213.19146731 348.60423386 218 356.5 C223.53918236 365.59551654 229.06777983 374.69742733 234.59326172 383.80126953 C239.39001059 391.70419793 244.19146731 399.60423386 249 407.5 C254.53918236 416.59551654 260.06777983 425.69742733 265.59326172 434.80126953 C270.39001059 442.70419793 275.19146731 450.60423386 280 458.5 C285.53918236 467.59551654 291.06777983 476.69742733 296.59326172 485.80126953 C301.39001059 493.70419793 306.19146731 501.60423386 311 509.5 C316.53918236 518.59551654 322.06777983 527.69742733 327.59326172 536.80126953 C332.39001059 544.70419793 337.19146731 552.60423386 342 560.5 C346.80947192 568.3973084 351.61183031 576.2989087 356.40948486 584.20339966 C358.56225979 587.75005027 360.71565674 591.29632328 362.86898804 594.84263611 C364.5815202 597.66313902 366.29355411 600.48394247 368.00488281 603.30517578 C369.87718554 606.39160134 371.75094389 609.47713886 373.625 612.5625 C374.16833984 613.45904297 374.71167969 614.35558594 375.27148438 615.27929688 C377.96637628 619.71304362 380.70756803 624.10680357 383.5234375 628.46484375 C386.40721594 632.97107106 388.99506874 637.57956089 391.52099609 642.29345703 C393.96593956 646.76764708 396.6408877 651.09613001 399.3125 655.4375 C400.54842064 657.45688221 401.78408612 659.47642059 403.01953125 661.49609375 C403.66615723 662.5516748 404.3127832 663.60725586 404.97900391 664.69482422 C408.13785428 669.86086872 411.27769059 675.03841101 414.41781616 680.21585083 C416.22570703 683.19644144 418.0346667 686.17638303 419.84375 689.15625 C420.19708908 689.73826675 420.55042816 690.32028351 420.91447449 690.91993713 C424.27187767 696.4493289 427.63529674 701.97504846 431 707.5 C436.53918236 716.59551654 442.06777983 725.69742733 447.59326172 734.80126953 C452.39001059 742.70419793 457.19146731 750.60423386 462 758.5 C467.53918236 767.59551654 473.06777983 776.69742733 478.59326172 785.80126953 C483.39001059 793.70419793 488.19146731 801.60423386 493 809.5 C498.53918236 818.59551654 504.06777983 827.69742733 509.59326172 836.80126953 C514.39001059 844.70419793 519.19146731 852.60423386 524 860.5 C529.53918236 869.59551654 535.06777983 878.69742733 540.59326172 887.80126953 C545.39001059 895.70419793 550.19146731 903.60423386 555 911.5 C560.53918236 920.59551654 566.06777983 929.69742733 571.59326172 938.80126953 C576.39001059 946.70419793 581.19146731 954.60423386 586 962.5 C591.53918236 971.59551654 597.06777983 980.69742733 602.59326172 989.80126953 C607.39001059 997.70419793 612.19146731 1005.60423386 617 1013.5 C622.53918236 1022.59551654 628.06777983 1031.69742733 633.59326172 1040.80126953 C638.39001059 1048.70419793 643.19146731 1056.60423386 648 1064.5 C653.53918236 1073.59551654 659.06777983 1082.69742733 664.59326172 1091.80126953 C669.39001059 1099.70419793 674.19146731 1107.60423386 679 1115.5 C684.53918236 1124.59551654 690.06777983 1133.69742733 695.59326172 1142.80126953 C700.39001059 1150.70419793 705.19146731 1158.60423386 710 1166.5 C715.53918236 1175.59551654 721.06777983 1184.69742733 726.59326172 1193.80126953 C731.39001064 1201.70419801 736.19153214 1209.60419433 741 1217.5 C748.38810747 1229.6335416 755.76714045 1241.77254088 763.13085938 1253.92089844 C764.77529376 1256.62983345 766.42534246 1259.33521704 768.078125 1262.0390625 C768.90638514 1263.40095949 769.7345246 1264.76292988 770.5625 1266.125 C771.24441406 1267.24132813 771.92632813 1268.35765625 772.62890625 1269.5078125 C774 1272 774 1272 774 1274 C770.24047028 1272.57289042 766.74012039 1270.87676113 763.1953125 1268.98046875 C762.06673828 1268.3771875 760.93816406 1267.77390625 759.77539062 1267.15234375 C758.55847063 1266.49762463 757.34167689 1265.84267078 756.125 1265.1875 C755.19095337 1264.68621582 755.19095337 1264.68621582 754.23803711 1264.17480469 C744.99910839 1259.21497116 735.84501784 1254.12203882 726.73803711 1248.92333984 C719.12148971 1244.59237488 711.41910466 1240.43284792 703.6875 1236.3125 C693.93313043 1231.11322237 684.23096602 1225.83538278 674.58349609 1220.44042969 C669.02287907 1217.34010456 663.44870934 1214.26420557 657.875 1211.1875 C657.25306763 1210.84411591 656.63113525 1210.50073181 655.99035645 1210.14694214 C646.45738608 1204.88552451 636.89517161 1199.68036103 627.31469727 1194.50585938 C620.91668798 1191.04718567 614.54388404 1187.54725412 608.19189453 1184.00488281 C599.95817669 1179.41345541 591.70150825 1174.86372736 583.44580078 1170.31201172 C582.18261718 1169.61555991 580.91943359 1168.91910809 579.65625 1168.22265625 C578.70889481 1167.70037445 578.70889481 1167.70037445 577.74240112 1167.1675415 C573.33700517 1164.73842348 568.93369183 1162.30556082 564.53125 1159.87109375 C562.08348928 1158.51794685 559.63556285 1157.16510023 557.1875 1155.8125 C556.28271408 1155.31256027 556.28271408 1155.31256027 555.35964966 1154.80252075 C547.13834606 1150.26177662 538.89258162 1145.76854052 530.625 1141.3125 C522.94645444 1137.17390268 515.32849103 1132.94394616 507.75 1128.625 C499.13426877 1123.7166712 490.43722381 1118.97606284 481.6875 1114.3125 C471.93320979 1109.11307084 462.23096877 1103.83538432 452.58349609 1098.44042969 C447.02287907 1095.34010456 441.44870934 1092.26420557 435.875 1089.1875 C435.25306763 1088.84411591 434.63113525 1088.50073181 433.99035645 1088.14694214 C424.45738608 1082.88552451 414.89517161 1077.68036103 405.31469727 1072.50585938 C398.91668798 1069.04718567 392.54388404 1065.54725412 386.19189453 1062.00488281 C377.95817669 1057.41345541 369.70150825 1052.86372736 361.44580078 1048.31201172 C360.18261718 1047.61555991 358.91943359 1046.91910809 357.65625 1046.22265625 C357.02467987 1045.87446838 356.39310974 1045.52628052 355.74240112 1045.1675415 C351.33700517 1042.73842348 346.93369183 1040.30556082 342.53125 1037.87109375 C340.08348928 1036.51794685 337.63556285 1035.16510023 335.1875 1033.8125 C334.28271408 1033.31256027 334.28271408 1033.31256027 333.35964966 1032.80252075 C325.13834606 1028.26177662 316.89258162 1023.76854052 308.625 1019.3125 C300.94645444 1015.17390268 293.32849103 1010.94394616 285.75 1006.625 C277.13426877 1001.7166712 268.43722381 996.97606284 259.6875 992.3125 C249.93320979 987.11307084 240.23096877 981.83538432 230.58349609 976.44042969 C225.02287907 973.34010456 219.44870934 970.26420557 213.875 967.1875 C213.25306763 966.84411591 212.63113525 966.50073181 211.99035645 966.14694214 C202.45738608 960.88552451 192.89517161 955.68036103 183.31469727 950.50585938 C176.91668798 947.04718567 170.54388404 943.54725412 164.19189453 940.00488281 C155.95817669 935.41345541 147.70150825 930.86372736 139.44580078 926.31201172 C138.18261718 925.61555991 136.91943359 924.91910809 135.65625 924.22265625 C135.02467987 923.87446838 134.39310974 923.52628052 133.74240112 923.1675415 C129.33700517 920.73842348 124.93369183 918.30556082 120.53125 915.87109375 C118.08348928 914.51794685 115.63556285 913.16510023 113.1875 911.8125 C112.58430939 911.47920685 111.98111877 911.1459137 111.35964966 910.80252075 C103.13834606 906.26177662 94.89258162 901.76854052 86.625 897.3125 C78.94645444 893.17390268 71.32849103 888.94394616 63.75 884.625 C55.13425838 879.71666528 46.43708768 874.97633249 37.6875 870.3125 C29.64224548 866.02288722 21.60148051 861.72908964 13.625 857.3125 C12.92463623 856.92682861 12.22427246 856.54115723 11.50268555 856.14379883 C7.53406586 853.93473376 3.7462273 851.56900726 0 849 C0.12329102 847.22119141 0.12329102 847.22119141 1 845 C3.58178711 843.23583984 3.58178711 843.23583984 7.02734375 841.4609375 C7.64263947 841.1388028 8.25793518 840.81666809 8.89187622 840.48477173 C10.90098219 839.43594123 12.91911478 838.40584183 14.9375 837.375 C16.33147445 836.6500248 17.72462024 835.92345407 19.11694336 835.1953125 C21.85795297 833.76224804 24.60138789 832.33402146 27.34667969 830.90917969 C31.62736561 828.68040184 35.85639472 826.36628872 40.0625 824 C41.44653005 823.22510942 42.83064813 822.45037604 44.21484375 821.67578125 C44.95202637 821.26279785 45.68920898 820.84981445 46.44873047 820.42431641 C51.99715194 817.32675747 57.56174918 814.25831828 63.125 811.1875 C63.74877533 810.84302826 64.37255066 810.49855652 65.01522827 810.14364624 C74.42688988 804.9477403 83.87204968 799.81705832 93.3359375 794.71679688 C99.98137234 791.12383177 106.56329773 787.43082601 113.125 783.6875 C122.10477374 778.56828489 131.1827001 773.65675356 140.3125 768.8125 C150.41663945 763.45082898 160.46918914 758.01504087 170.44873047 752.42431641 C175.99715194 749.32675747 181.56174918 746.25831828 187.125 743.1875 C187.74877533 742.84302826 188.37255066 742.49855652 189.01522827 742.14364624 C198.42688988 736.9477403 207.87204968 731.81705832 217.3359375 726.71679688 C223.98137234 723.12383177 230.56329773 719.43082601 237.125 715.6875 C246.10477374 710.56828489 255.1827001 705.65675356 264.3125 700.8125 C274.41663945 695.45082898 284.46918914 690.01504087 294.44873047 684.42431641 C299.99715194 681.32675747 305.56174918 678.25831828 311.125 675.1875 C311.74877533 674.84302826 312.37255066 674.49855652 313.01522827 674.14364624 C321.44528049 669.48965843 329.89823046 664.88100758 338.375 660.3125 C349.16358567 654.49575438 359.83479688 648.48253575 370.48779297 642.421875 C374.31199524 640.25742854 378.15403365 638.1254798 382 636 C382 635.34 382 634.68 382 634 C381.21165771 633.58339111 380.42331543 633.16678223 379.61108398 632.73754883 C353.11339501 618.71682433 353.11339501 618.71682433 340.5 611.5 C331.64792841 606.43713595 322.69495845 601.5909955 313.6875 596.8125 C303.58325539 591.45103214 293.53080614 586.01503823 283.55126953 580.42431641 C278.00284806 577.32675747 272.43825082 574.25831828 266.875 571.1875 C266.25122467 570.84302826 265.62744934 570.49855652 264.98477173 570.14364624 C256.55472136 565.48965945 248.10186115 560.8808348 239.625 556.3125 C231.98701036 552.19624833 224.41133992 547.98683819 216.875 543.6875 C207.89522626 538.56828489 198.8172999 533.65675356 189.6875 528.8125 C179.58336055 523.45082898 169.53081086 518.01504087 159.55126953 512.42431641 C154.00284806 509.32675747 148.43825082 506.25831828 142.875 503.1875 C141.93933701 502.67079239 141.93933701 502.67079239 140.98477173 502.14364624 C132.55472136 497.48965945 124.10186115 492.8808348 115.625 488.3125 C107.98701036 484.19624833 100.41133992 479.98683819 92.875 475.6875 C83.89522626 470.56828489 74.8172999 465.65675356 65.6875 460.8125 C55.61290498 455.46650646 45.58932874 450.047372 35.63916016 444.47265625 C30.30819697 441.49796893 24.96242185 438.54998311 19.6177063 435.60009766 C17.65999667 434.51932034 15.70290798 433.43742479 13.74584961 432.35546875 C12.53112484 431.68482772 11.31636407 431.0142519 10.1015625 430.34375 C9.02213379 429.74755859 7.94270508 429.15136719 6.83056641 428.53710938 C4.57734107 427.31351901 2.29332907 426.14666454 0 425 C0 284.75 0 144.5 0 0 Z " fill="#0A4B6E" transform="translate(2017,984)"/>
<path d="M0 0 C3.875 1.75 3.875 1.75 5 4 C4.67 4.66 4.34 5.32 4 6 C2.515 6.495 2.515 6.495 1 7 C-0.73772477 9.31253826 -0.73772477 9.31253826 -2.4140625 12.23828125 C-3.08373047 13.35396484 -3.75339844 14.46964844 -4.44335938 15.61914062 C-5.17064233 16.85021941 -5.89785387 18.08134039 -6.625 19.3125 C-7.38513926 20.58453965 -8.14622208 21.85601589 -8.90820312 23.12695312 C-10.49228511 25.7707733 -12.07225603 28.41698541 -13.64941406 31.06494141 C-16.88408609 36.48890778 -20.16761061 41.88299807 -23.45159912 47.27719116 C-25.22011593 50.18334705 -26.98485082 53.09179792 -28.75 56 C-29.45831555 57.16667746 -30.16664888 58.33334413 -30.875 59.5 C-31.225625 60.0775 -31.57625 60.655 -31.9375 61.25 C-69.12500032 122.50000053 -69.12500032 122.50000053 -70.18745422 124.24992371 C-70.89594121 125.41684404 -71.60442713 126.58376502 -72.31291199 127.75068665 C-74.08138578 130.66347747 -75.8498779 133.57625716 -77.6184082 136.48901367 C-80.83408928 141.78525796 -84.04962532 147.08159007 -87.26449585 152.37832642 C-94.73286245 164.68298737 -102.20542276 176.98505504 -109.69213867 189.27856445 C-114.30127738 196.84842322 -118.90159474 204.42361902 -123.5 212 C-129.22347041 221.43005017 -134.95374526 230.85591889 -140.69140625 240.27734375 C-145.30077051 247.84762082 -149.90131919 255.42323112 -154.5 263 C-162.55109153 276.26463811 -170.61746096 289.51993735 -178.68847656 302.77246094 C-185.9986178 314.77626058 -193.30019147 326.78521923 -200.59243774 338.79989624 C-205.95188179 347.62990691 -211.3187928 356.45533875 -216.69140625 365.27734375 C-221.30077048 372.84762076 -225.90134853 380.42321336 -230.5 388 C-236.22347041 397.43005017 -241.95374526 406.85591889 -247.69140625 416.27734375 C-252.30077048 423.84762076 -256.90134853 431.42321336 -261.5 439 C-267.22347041 448.43005017 -272.95374526 457.85591889 -278.69140625 467.27734375 C-283.30077048 474.84762076 -287.90134853 482.42321336 -292.5 490 C-298.22347041 499.43005017 -303.95374526 508.85591889 -309.69140625 518.27734375 C-314.30077048 525.84762076 -318.90134853 533.42321336 -323.5 541 C-329.22347041 550.43005017 -334.95374526 559.85591889 -340.69140625 569.27734375 C-344.93643973 576.24925524 -349.17424864 583.22553453 -353.40948486 590.20339966 C-355.56225979 593.75005027 -357.71565674 597.29632328 -359.86898804 600.84263611 C-361.5815202 603.66313902 -363.29355411 606.48394247 -365.00488281 609.30517578 C-366.87718554 612.39160134 -368.75094389 615.47713886 -370.625 618.5625 C-371.16833984 619.45904297 -371.71167969 620.35558594 -372.27148438 621.27929688 C-376.09731793 627.57371524 -380.02516132 633.79868744 -384 640 C-387.39733276 638.92115372 -390.58209879 637.84458221 -393.6796875 636.07421875 C-394.34871094 635.69652344 -395.01773438 635.31882812 -395.70703125 634.9296875 C-396.42246094 634.51976562 -397.13789063 634.10984375 -397.875 633.6875 C-399.47582637 632.78385094 -401.07743109 631.88157978 -402.6796875 630.98046875 C-403.53530273 630.49884277 -404.39091797 630.0172168 -405.27246094 629.52099609 C-410.15499177 626.79828153 -415.07946505 624.1532105 -420 621.5 C-427.62336508 617.38177417 -435.22640971 613.23191546 -442.79443359 609.01293945 C-449.89541659 605.05443567 -457.00801464 601.11713795 -464.125 597.1875 C-464.74823151 596.84330017 -465.37146301 596.49910034 -466.01358032 596.14447021 C-474.44418488 591.49022 -482.89760004 586.88112518 -491.375 582.3125 C-499.01298964 578.19624833 -506.58866008 573.98683819 -514.125 569.6875 C-523.10477374 564.56828489 -532.1827001 559.65675356 -541.3125 554.8125 C-551.41663945 549.45082898 -561.46918914 544.01504087 -571.44873047 538.42431641 C-576.99715194 535.32675747 -582.56174918 532.25831828 -588.125 529.1875 C-588.74877533 528.84302826 -589.37255066 528.49855652 -590.01522827 528.14364624 C-598.44527864 523.48965945 -606.89813885 518.8808348 -615.375 514.3125 C-623.01298964 510.19624833 -630.58866008 505.98683819 -638.125 501.6875 C-647.10477374 496.56828489 -656.1827001 491.65675356 -665.3125 486.8125 C-675.41663945 481.45082898 -685.46918914 476.01504087 -695.44873047 470.42431641 C-700.99715252 467.32675715 -706.56178428 464.25838287 -712.125 461.1875 C-712.74811066 460.8433606 -713.37122131 460.49922119 -714.01321411 460.14465332 C-722.4844997 455.46734544 -730.98039413 450.83887743 -739.5 446.25 C-750.44182624 440.35415268 -761.24295331 434.22570869 -772 428 C-770.71152895 424.13458684 -768.82369801 423.62274577 -765.32617188 421.84179688 C-764.1128418 421.23948242 -764.1128418 421.23948242 -762.875 420.625 C-755.30672416 416.76268937 -747.87534822 412.71891242 -740.5 408.5 C-733.5602885 404.54216884 -726.59170592 400.67874245 -719.5 397 C-712.64009965 393.43980769 -705.89838605 389.70838255 -699.1875 385.875 C-690.10423282 380.69088384 -680.9257215 375.71263658 -671.6875 370.8125 C-661.58316107 365.45121238 -651.53080237 360.01503612 -641.55126953 354.42431641 C-636.00284806 351.32675747 -630.43825082 348.25831828 -624.875 345.1875 C-624.25122467 344.84302826 -623.62744934 344.49855652 -622.98477173 344.14364624 C-613.57311012 338.9477403 -604.12795032 333.81705832 -594.6640625 328.71679688 C-588.01862766 325.12383177 -581.43670227 321.43082601 -574.875 317.6875 C-565.89522626 312.56828489 -556.8172999 307.65675356 -547.6875 302.8125 C-537.58336055 297.45082898 -527.53081086 292.01504087 -517.55126953 286.42431641 C-512.00284806 283.32675747 -506.43825082 280.25831828 -500.875 277.1875 C-500.25122467 276.84302826 -499.62744934 276.49855652 -498.98477173 276.14364624 C-489.57311012 270.9477403 -480.12795032 265.81705832 -470.6640625 260.71679688 C-464.01862766 257.12383177 -457.43670227 253.43082601 -450.875 249.6875 C-441.89522626 244.56828489 -432.8172999 239.65675356 -423.6875 234.8125 C-413.58336055 229.45082898 -403.53081086 224.01504087 -393.55126953 218.42431641 C-388.00284806 215.32675747 -382.43825082 212.25831828 -376.875 209.1875 C-376.25122467 208.84302826 -375.62744934 208.49855652 -374.98477173 208.14364624 C-365.57311012 202.9477403 -356.12795032 197.81705832 -346.6640625 192.71679688 C-340.01862766 189.12383177 -333.43670227 185.43082601 -326.875 181.6875 C-317.89522626 176.56828489 -308.8172999 171.65675356 -299.6875 166.8125 C-289.58336055 161.45082898 -279.53081086 156.01504087 -269.55126953 150.42431641 C-264.00284806 147.32675747 -258.43825082 144.25831828 -252.875 141.1875 C-252.25122467 140.84302826 -251.62744934 140.49855652 -250.98477173 140.14364624 C-241.57311012 134.9477403 -232.12795032 129.81705832 -222.6640625 124.71679688 C-216.01862766 121.12383177 -209.43670227 117.43082601 -202.875 113.6875 C-192.61264471 107.83710714 -182.21060409 102.27274528 -171.77636719 96.73779297 C-164.32830248 92.78534508 -156.91632325 88.77897118 -149.5612793 84.65551758 C-143.40676653 81.20959586 -137.20650366 77.85123134 -131 74.5 C-123.3768894 70.3812962 -115.77359634 66.23191883 -108.20556641 62.01293945 C-101.10458341 58.05443567 -93.99198536 54.11713795 -86.875 50.1875 C-85.94015274 49.67120026 -85.94015274 49.67120026 -84.98641968 49.14447021 C-76.55581336 44.49021903 -68.10231005 39.88129449 -59.625 35.3125 C-51.82465468 31.1069389 -44.08017847 26.81495361 -36.375 22.4375 C-28.50696557 17.96963628 -20.61830942 13.54313643 -12.6875 9.1875 C-11.27186768 8.40427368 -11.27186768 8.40427368 -9.82763672 7.60522461 C-8.96025879 7.13093018 -8.09288086 6.65663574 -7.19921875 6.16796875 C-6.43440186 5.74797607 -5.66958496 5.3279834 -4.8815918 4.89526367 C-3 4 -3 4 -1 4 C-0.67 2.68 -0.34 1.36 0 0 Z " fill="#2CA3DC" transform="translate(3613,942)"/>
<path d="M0 0 C0 280.17 0 560.34 0 849 C-2.89235134 845.38456083 -5.25743037 842.11603286 -7.6171875 838.1953125 C-8.64005859 836.50245117 -8.64005859 836.50245117 -9.68359375 834.77539062 C-10.41409052 833.55861057 -11.14455855 832.34181326 -11.875 831.125 C-12.63893657 829.85849084 -13.40326472 828.5922178 -14.16796875 827.32617188 C-15.71590758 824.76287893 -17.26231864 822.19867449 -18.80761719 819.63378906 C-21.85495427 814.57896609 -24.9271453 809.53933791 -28 804.5 C-33.53974399 795.40482621 -39.06778035 786.30257181 -44.59326172 777.19873047 C-49.39001059 769.29580207 -54.19146731 761.39576614 -59 753.5 C-64.53918236 744.40448346 -70.06777983 735.30257267 -75.59326172 726.19873047 C-80.39001059 718.29580207 -85.19146731 710.39576614 -90 702.5 C-95.53918236 693.40448346 -101.06777983 684.30257267 -106.59326172 675.19873047 C-111.39001059 667.29580207 -116.19146731 659.39576614 -121 651.5 C-126.53918236 642.40448346 -132.06777983 633.30257267 -137.59326172 624.19873047 C-142.39001059 616.29580207 -147.19146731 608.39576614 -152 600.5 C-157.17385761 592.00435852 -162.33890613 583.50339848 -167.5 575 C-174.98965465 562.66036156 -182.49181021 550.32836948 -190 538 C-197.87324453 525.07221445 -205.73876394 512.13978661 -213.59243774 499.20010376 C-218.3894602 491.29671693 -223.19118963 483.3962221 -228 475.5 C-233.53918236 466.40448346 -239.06777983 457.30257267 -244.59326172 448.19873047 C-249.39001059 440.29580207 -254.19146731 432.39576614 -259 424.5 C-264.53918236 415.40448346 -270.06777983 406.30257267 -275.59326172 397.19873047 C-280.39001059 389.29580207 -285.19146731 381.39576614 -290 373.5 C-295.53918236 364.40448346 -301.06777983 355.30257267 -306.59326172 346.19873047 C-311.39001059 338.29580207 -316.19146731 330.39576614 -321 322.5 C-326.53918236 313.40448346 -332.06777983 304.30257267 -337.59326172 295.19873047 C-342.95021665 286.37282936 -348.31447003 277.55140415 -353.68481445 268.73364258 C-356.88083204 263.48483518 -360.07331438 258.233903 -363.26171875 252.98046875 C-363.62589401 252.38053604 -363.99006927 251.78060333 -364.36528015 251.16249084 C-366.19719722 248.14434129 -368.02809915 245.12558356 -369.85717773 242.10571289 C-373.0539639 236.83057438 -376.2613408 231.56321873 -379.5234375 226.328125 C-380.04333252 225.49063721 -380.56322754 224.65314941 -381.09887695 223.7902832 C-382.04484324 222.26963649 -382.99614801 220.75229201 -383.95385742 219.23901367 C-387 214.33357633 -387 214.33357633 -387 211 C-386.18547363 210.56768066 -385.37094727 210.13536133 -384.53173828 209.68994141 C-370.14102691 202.04696943 -355.76744919 194.38848438 -341.55126953 186.42431641 C-336.00284806 183.32675747 -330.43825082 180.25831828 -324.875 177.1875 C-324.25122467 176.84302826 -323.62744934 176.49855652 -322.98477173 176.14364624 C-313.57311012 170.9477403 -304.12795032 165.81705832 -294.6640625 160.71679688 C-288.01862766 157.12383177 -281.43670227 153.43082601 -274.875 149.6875 C-265.89522626 144.56828489 -256.8172999 139.65675356 -247.6875 134.8125 C-237.58336055 129.45082898 -227.53081086 124.01504087 -217.55126953 118.42431641 C-212.00284806 115.32675747 -206.43825082 112.25831828 -200.875 109.1875 C-199.93933701 108.67079239 -199.93933701 108.67079239 -198.98477173 108.14364624 C-189.57311012 102.9477403 -180.12795032 97.81705832 -170.6640625 92.71679688 C-164.01862766 89.12383177 -157.43670227 85.43082601 -150.875 81.6875 C-141.89522626 76.56828489 -132.8172999 71.65675356 -123.6875 66.8125 C-113.58336055 61.45082898 -103.53081086 56.01504087 -93.55126953 50.42431641 C-88.00284806 47.32675747 -82.43825082 44.25831828 -76.875 41.1875 C-76.25122467 40.84302826 -75.62744934 40.49855652 -74.98477173 40.14364624 C-66.55472039 35.48965891 -58.10181456 30.88092281 -49.625 26.3125 C-41.63556519 22.00587773 -33.70560548 17.6057235 -25.8125 13.125 C-12.94057519 5.81951819 -12.94057519 5.81951819 -7.1875 2.6875 C-5.72376953 1.88892578 -5.72376953 1.88892578 -4.23046875 1.07421875 C-2 0 -2 0 0 0 Z " fill="#2CA3DC" transform="translate(2840,1370)"/>
<path d="M0 0 C0.66 0 1.32 0 2 0 C2 139.92 2 279.84 2 424 C-7.26101159 429.29200662 -16.53226764 434.54425623 -25.875 439.6875 C-27.14143902 440.38582318 -28.40787781 441.08414675 -29.67431641 441.7824707 C-38.5353487 446.66413986 -47.42919663 451.48312197 -56.33496094 456.28271484 C-62.98075433 459.87578375 -69.56298141 463.56899354 -76.125 467.3125 C-85.10477374 472.43171511 -94.1827001 477.34324644 -103.3125 482.1875 C-113.41663945 487.54917102 -123.46918914 492.98495913 -133.44873047 498.57568359 C-138.99715194 501.67324253 -144.56174918 504.74168172 -150.125 507.8125 C-150.74877533 508.15697174 -151.37255066 508.50144348 -152.01522827 508.85635376 C-161.42688988 514.0522597 -170.87204968 519.18294168 -180.3359375 524.28320312 C-186.98137234 527.87616823 -193.56329773 531.56917399 -200.125 535.3125 C-209.10477374 540.43171511 -218.1827001 545.34324644 -227.3125 550.1875 C-237.41663945 555.54917102 -247.46918914 560.98495913 -257.44873047 566.57568359 C-262.99715194 569.67324253 -268.56174918 572.74168172 -274.125 575.8125 C-274.74877533 576.15697174 -275.37255066 576.50144348 -276.01522827 576.85635376 C-285.42688988 582.0522597 -294.87204968 587.18294168 -304.3359375 592.28320312 C-310.9813708 595.87616739 -317.56333316 599.56911346 -324.125 603.3125 C-334.41657309 609.18068359 -344.84822273 614.76307848 -355.31811523 620.30395508 C-362.81357095 624.27457001 -370.26910347 628.29959082 -377.57397461 632.61425781 C-380.3071773 634.20048799 -381.7722183 635 -385 635 C-383.5889953 631.17633805 -381.81151387 627.84387557 -379.68359375 624.37109375 C-379.01070312 623.26830078 -378.3378125 622.16550781 -377.64453125 621.02929688 C-376.90888442 619.83201266 -376.17320647 618.63474757 -375.4375 617.4375 C-374.67147143 616.18449143 -373.90585357 614.93123168 -373.140625 613.67773438 C-371.55090594 611.07438199 -369.95942677 608.47211826 -368.36669922 605.87060547 C-365.07926929 600.49804689 -361.81337614 595.11244977 -358.5473938 589.72683716 C-356.78262593 586.81726606 -355.01622451 583.90868699 -353.25 581 C-352.54165897 579.83333801 -351.83332563 578.66667134 -351.125 577.5 C-346.87499997 570.49999995 -346.87499997 570.49999995 -345.81254578 568.75007629 C-345.10405879 567.58315596 -344.39557287 566.41623498 -343.68708801 565.24931335 C-341.91861422 562.33652253 -340.1501221 559.42374284 -338.3815918 556.51098633 C-335.16591072 551.21474204 -331.95037468 545.91840993 -328.73550415 540.62167358 C-321.26713755 528.31701263 -313.79457724 516.01494496 -306.30786133 503.72143555 C-301.69872262 496.15157678 -297.09840526 488.57638098 -292.5 481 C-286.77652959 471.56994983 -281.04625474 462.14408111 -275.30859375 452.72265625 C-270.69922952 445.15237924 -266.09865147 437.57678664 -261.5 430 C-255.77652959 420.56994983 -250.04625474 411.14408111 -244.30859375 401.72265625 C-239.69922952 394.15237924 -235.09865147 386.57678664 -230.5 379 C-224.77652959 369.56994983 -219.04625474 360.14408111 -213.30859375 350.72265625 C-208.69922952 343.15237924 -204.09865147 335.57678664 -199.5 328 C-193.77652959 318.56994983 -188.04625474 309.14408111 -182.30859375 299.72265625 C-177.69922949 292.15237918 -173.09868081 284.57676888 -168.5 277 C-160.44890847 263.73536189 -152.38253904 250.48006265 -144.31152344 237.22753906 C-137.0013822 225.22373942 -129.69980853 213.21478077 -122.40756226 201.20010376 C-117.04811821 192.37009309 -111.6812072 183.54466125 -106.30859375 174.72265625 C-101.69922952 167.15237924 -97.09865147 159.57678664 -92.5 152 C-86.77652959 142.56994983 -81.04625474 133.14408111 -75.30859375 123.72265625 C-70.69922952 116.15237924 -66.09865147 108.57678664 -61.5 101 C-55.77652959 91.56994983 -50.04625474 82.14408111 -44.30859375 72.72265625 C-39.69922941 65.15237906 -35.09873962 57.57673327 -30.5 50 C-17.1081215 27.93753323 -17.1081215 27.93753323 -11.04296875 18 C-9.15486194 14.90493512 -7.2808164 11.80248972 -5.42578125 8.6875 C-5.05074463 8.06286865 -4.67570801 7.4382373 -4.28930664 6.79467773 C-3.33912135 5.21103558 -2.39576565 3.62330082 -1.453125 2.03515625 C-0.97359375 1.36355469 -0.4940625 0.69195313 0 0 Z " fill="#81D1F5" transform="translate(3658,984)"/>
<path d="M0 0 C3.29918389 3.29918389 5.15650604 5.63415466 7.43359375 9.55859375 C8.07546631 10.65550537 8.71733887 11.75241699 9.37866211 12.88256836 C9.71396942 13.46166962 10.04927673 14.04077087 10.39474487 14.63742065 C12.1769476 17.71398795 13.98008735 20.77825728 15.78125 23.84375 C16.32307167 24.76745644 16.32307167 24.76745644 16.87583923 25.70982361 C19.98542456 31.00119699 23.18753564 36.23115112 26.4375 41.4375 C31.42932186 49.44652819 36.35762833 57.49242775 41.25 65.5625 C41.78643631 66.44722488 41.78643631 66.44722488 42.33370972 67.349823 C44.15986198 70.3619574 45.98536405 73.37448513 47.81054688 76.38720703 C51.0171317 81.67942618 54.2294978 86.96813456 57.44152832 92.25704956 C59.21126513 95.17121686 60.98061251 98.0856206 62.75 101 C63.45833148 102.16666779 64.16666481 103.33333446 64.875 104.5 C71.95833333 116.16666667 79.04166667 127.83333333 86.125 139.5 C86.47560989 140.07747482 86.82621979 140.65494965 87.18745422 141.24992371 C87.89594121 142.41684404 88.60442713 143.58376502 89.31291199 144.75068665 C91.08138578 147.66347747 92.8498779 150.57625716 94.6184082 153.48901367 C97.83408928 158.78525796 101.04962532 164.08159007 104.26449585 169.37832642 C111.73286245 181.68298737 119.20542276 193.98505504 126.69213867 206.27856445 C131.66654876 214.44832983 136.63043582 222.62446526 141.59326172 230.80126953 C146.39001059 238.70419793 151.19146731 246.60423386 156 254.5 C161.53918236 263.59551654 167.06777983 272.69742733 172.59326172 281.80126953 C177.39001059 289.70419793 182.19146731 297.60423386 187 305.5 C192.53918236 314.59551654 198.06777983 323.69742733 203.59326172 332.80126953 C208.39001059 340.70419793 213.19146731 348.60423386 218 356.5 C223.53918236 365.59551654 229.06777983 374.69742733 234.59326172 383.80126953 C239.39001059 391.70419793 244.19146731 399.60423386 249 407.5 C254.53918236 416.59551654 260.06777983 425.69742733 265.59326172 434.80126953 C270.39001059 442.70419793 275.19146731 450.60423386 280 458.5 C285.53918236 467.59551654 291.06777983 476.69742733 296.59326172 485.80126953 C301.39001059 493.70419793 306.19146731 501.60423386 311 509.5 C316.53918236 518.59551654 322.06777983 527.69742733 327.59326172 536.80126953 C332.39001059 544.70419793 337.19146731 552.60423386 342 560.5 C347.89633172 570.18196733 353.78110848 579.87091999 359.66162109 589.5625 C363.08362983 595.20151772 366.50926605 600.83826825 369.9453125 606.46875 C381.68004209 625.70007357 381.68004209 625.70007357 387 635 C382.73946775 634.38670422 379.53813275 632.88970304 375.7578125 630.859375 C375.16189301 630.54119812 374.56597351 630.22302124 373.95199585 629.89520264 C372.0059969 628.85347291 370.06543647 627.80204959 368.125 626.75 C366.76252426 626.01729082 365.3998923 625.28487206 364.03710938 624.55273438 C355.21585207 619.8008374 346.47543203 614.91659912 337.77709961 609.94311523 C329.82535173 605.41626446 321.76971466 601.10014969 313.6875 596.8125 C303.58325539 591.45103214 293.53080614 586.01503823 283.55126953 580.42431641 C278.00284806 577.32675747 272.43825082 574.25831828 266.875 571.1875 C266.25122467 570.84302826 265.62744934 570.49855652 264.98477173 570.14364624 C256.55472136 565.48965945 248.10186115 560.8808348 239.625 556.3125 C231.98701036 552.19624833 224.41133992 547.98683819 216.875 543.6875 C207.89522626 538.56828489 198.8172999 533.65675356 189.6875 528.8125 C179.58336055 523.45082898 169.53081086 518.01504087 159.55126953 512.42431641 C154.00284806 509.32675747 148.43825082 506.25831828 142.875 503.1875 C141.93933701 502.67079239 141.93933701 502.67079239 140.98477173 502.14364624 C132.55472136 497.48965945 124.10186115 492.8808348 115.625 488.3125 C107.98701036 484.19624833 100.41133992 479.98683819 92.875 475.6875 C83.89522626 470.56828489 74.8172999 465.65675356 65.6875 460.8125 C55.61290498 455.46650646 45.58932874 450.047372 35.63916016 444.47265625 C30.30819697 441.49796893 24.96242185 438.54998311 19.6177063 435.60009766 C17.65999667 434.51932034 15.70290798 433.43742479 13.74584961 432.35546875 C12.53112484 431.68482772 11.31636407 431.0142519 10.1015625 430.34375 C9.02213379 429.74755859 7.94270508 429.15136719 6.83056641 428.53710938 C4.57734107 427.31351901 2.29332907 426.14666454 0 425 C0 284.75 0 144.5 0 0 Z " fill="#80D0F4" transform="translate(2017,984)"/>
<path d="M0 0 C0.99 0.33 1.98 0.66 3 1 C3 2.32 3 3.64 3 5 C1.02 5.99 1.02 5.99 -1 7 C-1.66 5.68 -2.32 4.36 -3 3 C-2.01 2.01 -1.02 1.02 0 0 Z " fill="#030404" transform="translate(2066,942)"/>
<path d="M0 0 C3.875 1.75 3.875 1.75 5 4 C4.67 4.66 4.34 5.32 4 6 C3.01 6 2.02 6 1 6 C1 5.34 1 4.68 1 4 C0.34 4 -0.32 4 -1 4 C-0.67 2.68 -0.34 1.36 0 0 Z " fill="#020202" transform="translate(3613,942)"/>
<path d="M0 0 C0.66 0 1.32 0 2 0 C2.66 1.65 3.32 3.3 4 5 C3.01 5.33 2.02 5.66 1 6 C0.34 4.35 -0.32 2.7 -1 1 C-0.67 0.67 -0.34 0.34 0 0 Z " fill="#010101" transform="translate(2065,1791)"/>
<path d="M0 0 C0.66 0.33 1.32 0.66 2 1 C1.34 2.65 0.68 4.3 0 6 C-0.66 5.67 -1.32 5.34 -2 5 C-1.125 1.125 -1.125 1.125 0 0 Z " fill="#010101" transform="translate(3615,1791)"/>
<path d="M0 0 C1.32 0.33 2.64 0.66 4 1 C4 2.32 4 3.64 4 5 C3.01 4.67 2.02 4.34 1 4 C0.3125 1.9375 0.3125 1.9375 0 0 Z " fill="#010101" transform="translate(3675,1380)"/>
</svg>
